<?xml version="1.0" encoding="utf-8"?><!-- Uploaded to: SVG Repo, www.svgrepo.com, Generator: SVG Repo Mixer Tools -->
<svg width="20px" height="20px" viewBox="0 -0.5 25 25" class="call-icon" fill="none" xmlns="http://www.w3.org/2000/svg">
<path fill-rule="evenodd" clip-rule="evenodd" d="M19.5 13.0052C19.5009 13.3977 19.3918 13.7826 19.185 14.1162C18.986 14.4401 18.6945 14.6968 18.348 14.8532C18.0095 15.0045 17.6317 15.0444 17.269 14.9672C16.9018 14.8873 16.5681 14.6963 16.313 14.4202C16.048 14.1344 15.87 13.7788 15.8 13.3952C15.7278 13.0075 15.7645 12.6074 15.906 12.2392C16.0427 11.8785 16.2818 11.5657 16.594 11.3392C16.8968 11.1218 17.2603 11.005 17.633 11.0052C18.1354 11.0085 18.6137 11.2208 18.953 11.5912C19.3072 11.9767 19.5026 12.4818 19.5 13.0052V13.0052Z" stroke="#000000" stroke-width="1.5" stroke-linecap="round" stroke-linejoin="round"/>
<path fill-rule="evenodd" clip-rule="evenodd" d="M5.50002 13.0053C5.49913 13.3978 5.60826 13.7826 5.81502 14.1163C6.01428 14.4403 6.30621 14.697 6.65302 14.8533C6.99125 15.0043 7.36867 15.0442 7.73102 14.9673C8.09825 14.8873 8.432 14.6963 8.68702 14.4203C8.95209 14.1344 9.13006 13.7788 9.20002 13.3953C9.27224 13.0075 9.23554 12.6074 9.09402 12.2393C8.95739 11.8786 8.71823 11.5657 8.40602 11.3393C8.10323 11.1218 7.73979 11.005 7.36702 11.0053C6.86467 11.0085 6.38637 11.2208 6.04702 11.5913C5.69286 11.9767 5.49747 12.4818 5.50002 13.0053Z" stroke="#000000" stroke-width="1.5" stroke-linecap="round" stroke-linejoin="round"/>
<path d="M19.5 13.0052C19.3884 12.1556 19.0667 11.3472 18.564 10.6532C17.0509 8.89394 14.819 7.91933 12.5 8.00525C10.1811 7.91933 7.9492 8.89394 6.43603 10.6532C5.93336 11.3472 5.61165 12.1556 5.50003 13.0052" stroke="#000000" stroke-width="1.5" stroke-linecap="round" stroke-linejoin="round"/>
</svg>