<?xml version="1.0" ?><!-- Uploaded to: SVG Repo, www.svgrepo.com, Generator: SVG Repo Mixer Tools -->
<svg fill="#fff" width="1.4vw" height="1.4vw" viewBox="0 0 35 35" data-name="Layer 2" id="Layer_2" xmlns="http://www.w3.org/2000/svg" class="nav-icons"><path d="M30.35,22h-.1a1.25,1.25,0,0,1-1.15-1.34c0-.34,0-.67,0-1A11.84,11.84,0,0,0,21.19,8.44,1.25,1.25,0,0,1,22,6.07a14.37,14.37,0,0,1,9.63,13.59c0,.4,0,.8-.05,1.2A1.24,1.24,0,0,1,30.35,22Z"/><path d="M4.43,22.08A1.25,1.25,0,0,1,3.19,21c0-.42-.06-.86-.06-1.29A14.37,14.37,0,0,1,12.76,6.07a1.25,1.25,0,0,1,.82,2.37A11.84,11.84,0,0,0,5.63,19.66c0,.35,0,.7,0,1.05a1.24,1.24,0,0,1-1.12,1.36Z"/><path d="M17.38,34A14,14,0,0,1,7,29.5a1.25,1.25,0,1,1,1.82-1.71,11.59,11.59,0,0,0,8.55,3.72A11.71,11.71,0,0,0,26,27.71a1.25,1.25,0,1,1,1.84,1.69A14.23,14.23,0,0,1,17.38,34Z"/><path d="M17.39,12.1a5.56,5.56,0,1,1,5.52-5.55A5.55,5.55,0,0,1,17.39,12.1Zm0-8.61a3.06,3.06,0,1,0,3,3.06A3,3,0,0,0,17.39,3.49Z"/><path d="M29.23,30.48a5.56,5.56,0,1,1,5.52-5.56A5.55,5.55,0,0,1,29.23,30.48Zm0-8.62a3.06,3.06,0,1,0,3,3.06A3,3,0,0,0,29.23,21.86Z"/><path d="M5.77,30.48a5.56,5.56,0,1,1,5.53-5.56A5.55,5.55,0,0,1,5.77,30.48Zm0-8.62a3.06,3.06,0,1,0,3,3.06A3,3,0,0,0,5.77,21.86Z"/></svg>